# xmcd
#
# Track frame offsets:
#	182
#	12267
#	21855
#	44257
#	69580
#	81012
#	88087
#	98807
#	107835
#	119837
#	128570
#	165092
#
# Disc length: 2619 seconds
#
# Revision: 4
# Processed by: cddbd v1.5.2PL0 Copyright (c) Steve Scherf et al.
# Submitted via: audiograbber 1.83.01
#
DISCID=910a390c,a90a390c
DTITLE=Georg Deuter - Aum
DYEAR=1972
DGENRE=New Age
TTITLE0=1. Phoenix
TTITLE1=2. Aum
TTITLE2=3. Soham
TTITLE3=4. Offener Himmel I - Gleichzeitig
TTITLE4=5. Offener Himmel II
TTITLE5=6. Sattwa
TTITLE6=4. Morning Glory
TTITLE7=8. Soma
TTITLE8=9. Surat Shabda
TTITLE9=10. Abraxas
TTITLE10=11. Susani
TTITLE11=12. The Key
EXTD=
EXTT0=
EXTT1=
EXTT2=
EXTT3=
EXTT4=
EXTT5=
EXTT6=
EXTT7=
EXTT8=
EXTT9=
EXTT10=
EXTT11=
PLAYORDER=
